HIERARCHY
ROOT hip
{
  OFFSET 0 0 0
  CHANNELS 6 Xposition Yposition Zposition Zrotation Yrotation Xrotation
  JOINT abdomen
  {
    OFFSET 0 20.6881 -0.73152
    CHANNELS 3 Zrotation Xrotation Yrotation
    JOINT chest
    {
      OFFSET 0 11.7043 -0.48768
      CHANNELS 3 Zrotation Xrotation Yrotation
      JOINT neck
      {
        OFFSET 0 22.1894 -2.19456
        CHANNELS 3 Zrotation Xrotation Yrotation
        JOINT head
        {
          OFFSET -0.24384 7.07133 1.2192
          CHANNELS 3 Zrotation Xrotation Yrotation
          JOINT leftEye
          {
            OFFSET 4.14528 8.04674 8.04672
            CHANNELS 3 Zrotation Xrotation Yrotation
            End Site
            {
              OFFSET 1 0 0
            }
          }
          JOINT rightEye
          {
            OFFSET -3.6576 8.04674 8.04672
            CHANNELS 3 Zrotation Xrotation Yrotation
            End Site
            {
              OFFSET 1 0 0
            }
          }
        }
      }
      JOINT rCollar
      {
        OFFSET -2.68224 19.2634 -4.8768
        CHANNELS 3 Zrotation Xrotation Yrotation
        JOINT rShldr
        {
          OFFSET -8.77824 -1.95073 1.46304
          CHANNELS 3 Zrotation Xrotation Yrotation
          JOINT rForeArm
          {
            OFFSET -28.1742 -1.7115 0.48768
            CHANNELS 3 Zrotation Xrotation Yrotation
            JOINT rHand
            {
              OFFSET -22.5879 0.773209 7.07136
              CHANNELS 3 Zrotation Xrotation Yrotation
              JOINT rThumb1
              {
                OFFSET -1.2192 -0.487915 3.41376
                CHANNELS 3 Zrotation Xrotation Yrotation
                JOINT rThumb2
                {
                  OFFSET -3.37035 -0.52449 3.41376
                  CHANNELS 3 Zrotation Xrotation Yrotation
                  End Site
                  {
                    OFFSET -1.78271 -1.18214 1.43049
                  }
                }
              }
              JOINT rIndex1
              {
                OFFSET -7.75947 0.938293 5.60832
                CHANNELS 3 Zrotation Xrotation Yrotation
                JOINT rIndex2
                {
                  OFFSET -2.54057 -0.884171 1.56538
                  CHANNELS 3 Zrotation Xrotation Yrotation
                  End Site
                  {
                    OFFSET -1.62519 -0.234802 1.16502
                  }
                }
              }
              JOINT rMid1
              {
                OFFSET -8.24714 1.18213 3.41376
                CHANNELS 3 Zrotation Xrotation Yrotation
                JOINT rMid2
                {
                  OFFSET -3.10165 -0.590103 1.0647
                  CHANNELS 3 Zrotation Xrotation Yrotation
                  End Site
                  {
                    OFFSET -2.48547 -0.328903 0.83742
                  }
                }
              }
              JOINT rRing1
              {
                OFFSET -8.82822 0.546677 1.51678
                CHANNELS 3 Zrotation Xrotation Yrotation
                JOINT rRing2
                {
                  OFFSET -2.60934 -0.819778 -0.0198488
                  CHANNELS 3 Zrotation Xrotation Yrotation
                  End Site
                  {
                    OFFSET -2.33842 -0.294052 0.168128
                  }
                }
              }
              JOINT rPinky1
              {
                OFFSET -8.27202 -0.0477905 -0.4584
                CHANNELS 3 Zrotation Xrotation Yrotation
                JOINT rPinky2
                {
                  OFFSET -1.82734 -0.647385 -0.700984
                  CHANNELS 3 Zrotation Xrotation Yrotation
                  End Site
                  {
                    OFFSET -1.69225 -0.51767 -0.607171
                  }
                }
              }
            }
          }
        }
      }
      JOINT lCollar
      {
        OFFSET 2.68224 19.2634 -4.8768
        CHANNELS 3 Zrotation Xrotation Yrotation
        JOINT lShldr
        {
          OFFSET 8.77824 -1.95073 1.46304
          CHANNELS 3 Zrotation Xrotation Yrotation
          JOINT lForeArm
          {
            OFFSET 28.1742 -1.7115 0.48768
            CHANNELS 3 Zrotation Xrotation Yrotation
            JOINT lHand
            {
              OFFSET 22.5879 0.773209 7.07136
              CHANNELS 3 Zrotation Xrotation Yrotation
              JOINT lThumb1
              {
                OFFSET 1.2192 -0.487915 3.41376
                CHANNELS 3 Zrotation Xrotation Yrotation
                JOINT lThumb2
                {
                  OFFSET 3.37035 -0.52449 3.41376
                  CHANNELS 3 Zrotation Xrotation Yrotation
                  End Site
                  {
                    OFFSET 1.78271 -1.18214 1.43049
                  }
                }
              }
              JOINT lIndex1
              {
                OFFSET 7.75947 0.938293 5.60832
                CHANNELS 3 Zrotation Xrotation Yrotation
                JOINT lIndex2
                {
                  OFFSET 2.54057 -0.884171 1.56538
                  CHANNELS 3 Zrotation Xrotation Yrotation
                  End Site
                  {
                    OFFSET 1.62519 -0.234802 1.16502
                  }
                }
              }
              JOINT lMid1
              {
                OFFSET 8.24714 1.18213 3.41376
                CHANNELS 3 Zrotation Xrotation Yrotation
                JOINT lMid2
                {
                  OFFSET 3.10165 -0.590103 1.0647
                  CHANNELS 3 Zrotation Xrotation Yrotation
                  End Site
                  {
                    OFFSET 2.48547 -0.328903 0.83742
                  }
                }
              }
              JOINT lRing1
              {
                OFFSET 8.82822 0.546677 1.51678
                CHANNELS 3 Zrotation Xrotation Yrotation
                JOINT lRing2
                {
                  OFFSET 2.60934 -0.819778 -0.0198488
                  CHANNELS 3 Zrotation Xrotation Yrotation
                  End Site
                  {
                    OFFSET 2.33842 -0.294052 0.168128
                  }
                }
              }
              JOINT lPinky1
              {
                OFFSET 8.27202 -0.0477905 -0.4584
                CHANNELS 3 Zrotation Xrotation Yrotation
                JOINT lPinky2
                {
                  OFFSET 1.82734 -0.647385 -0.700984
                  CHANNELS 3 Zrotation Xrotation Yrotation
                  End Site
                  {
                    OFFSET 1.69225 -0.51767 -0.607171
                  }
                }
              }
            }
          }
        }
      }
    }
  }
  JOINT rButtock
  {
    OFFSET -8.77824 4.35084 1.2192
    CHANNELS 3 Zrotation Xrotation Yrotation
    JOINT rThigh
    {
      OFFSET 0 -1.70687 -2.19456
      CHANNELS 3 Zrotation Xrotation Yrotation
      JOINT rShin
      {
        OFFSET 0 -36.8199 0.73152
        CHANNELS 3 Zrotation Xrotation Yrotation
        JOINT rFoot
        {
          OFFSET 0.73152 -45.1104 -5.12064
          CHANNELS 3 Zrotation Xrotation Yrotation
          End Site
          {
            OFFSET -1.1221 -3.69964 12.103
          }
        }
      }
    }
  }
  JOINT lButtock
  {
    OFFSET 8.77824 4.35084 1.2192
    CHANNELS 3 Zrotation Xrotation Yrotation
    JOINT lThigh
    {
      OFFSET 0 -1.70687 -2.19456
      CHANNELS 3 Zrotation Xrotation Yrotation
      JOINT lShin
      {
        OFFSET 0 -36.8199 0.73152
        CHANNELS 3 Zrotation Xrotation Yrotation
        JOINT lFoot
        {
          OFFSET -0.73152 -45.1104 -5.12064
          CHANNELS 3 Zrotation Xrotation Yrotation
          End Site
          {
            OFFSET 1.1221 -3.69964 12.103
          }
        }
      }
    }
  }
}
MOTION
Frames:	8
Frame Time:	0.03333
0.0 0.0 0.0 0.0 0.0 0.0 0.0 0.0 0.0 0.0 0.0 0.0 0.0 0.0 0.0 0.0 0.0 0.0 0.0 0.0 0.0 0.0 0.0 0.0 0.0 0.0 0.0 0.0 0.0 0.0 0.0 0.0 0.0 0.0 0.0 0.0 0.0 0.0 0.0 0.0 0.0 0.0 0.0 0.0 0.0 0.0 0.0 0.0 0.0 0.0 0.0 0.0 0.0 0.0 0.0 0.0 0.0 0.0 0.0 0.0 0.0 0.0 0.0 0.0 0.0 0.0 0.0 0.0 0.0 0.0 0.0 0.0 0.0 0.0 0.0 0.0 0.0 0.0 0.0 0.0 0.0 0.0 0.0 0.0 0.0 0.0 0.0 0.0 0.0 0.0 0.0 0.0 0.0 0.0 0.0 0.0 0.0 0.0 0.0 0.0 0.0 0.0 0.0 0.0 0.0 0.0 0.0 0.0 0.0 0.0 0.0 0.0 0.0 0.0 0.0 0.0 0.0 0.0 0.0 0.0 0.0 0.0 0.0 0.0 0.0 0.0 0.0 0.0 0.0 0.0 0.0 0.0
-1.1686999999999999 61.370000000000005 -0.0348 139.164218 -85.423338 -133.088867 -5.11332 8.79374 -107.872029 5.225592 4.264106 109.153755 -15.339825 26.40362 -73.644675 41.441196 3.975746 48.042321 -0.002144 -0.0 0.001479 -0.002144 -0.0 0.001479 -6.251462 26.219196 7.4679 51.640283 -14.169603 30.878387 -5.465482 -8.173554 86.396628 -5.669126 11.766177 -0.570785 -177.747208 -15.324303 89.570334 13.800953 -63.899859 12.006252 -46.20889 39.652465 36.318602 -12.354389 25.073456 5.484208 -36.034766 51.72363 29.8317 11.57623 -24.900393 -1.457457 -69.297523 72.946845 87.016835 5.86963 2.735952 -4.061954 12.252614 41.424808 10.281482 28.750936 75.258028 5.157886 69.037125 -86.842418 90.939685 -94.316626 38.742614 86.148206 29.215624 0.429745 -112.979644 -2.52559 -41.47189 4.131905 173.770494 -11.440067 -89.891019 122.162543 14.415629 -58.131425 46.207299 39.653982 -36.317654 170.870128 -20.858013 -111.721067 86.294398 60.958862 -77.857549 166.733747 -15.999811 -143.985222 145.120901 1.974715 179.750306 7.077929 -61.105721 27.894964 -25.917956 79.09417 -10.828717 149.048191 13.535616 143.198061 -0.008388 0.000371 -0.004194 -40.197068 -60.62609 135.883175 30.994151 -61.9658 150.787628 164.811347 -66.805992 -81.019413 -179.948237 75.749266 -0.042589 -150.860828 69.550458 125.905555 42.058153 -39.593081 122.624236 -36.660776 58.467752 153.292344
-1.5657 60.8587 -0.1005 135.542106 -84.919024 -129.672294 -8.491235 11.539022 -0.0 5.075812 -9.313358 1.560249 -0.571796 17.048021 28.593995 -15.131763 -25.620849 -57.645059 0.003977 -0.0 -0.000478 -0.001736 0.0 -7.5e-05 -147.672071 29.085114 152.476262 -27.650255 -5.866374 20.068569 1.468118 19.855049 -119.646751 170.922139 -21.341626 142.968961 -0.474877 0.467868 0.07509 -0.476901 0.702738 0.712238 14.651054 -26.291884 -5.618585 124.567862 -62.383344 64.366654 -89.835528 60.702153 81.262722 -163.080427 -4.780127 143.157672 0.003067 0.605595 0.190429 -156.610609 -30.238995 175.397556 44.734586 86.377953 -5.368329 -85.866956 -52.931456 -84.301402 -0.127456 -0.770106 0.169567 101.869016 -18.457938 -174.047516 178.252301 -9.860366 75.965896 9.912815 -1.660076 2.835717 -4.53049 -4.51425 0.521603 -5.669332 -10.118413 7.898544 162.636006 -37.465763 -122.649054 -133.183325 -69.549969 -74.590638 103.30734 58.657169 -94.183759 161.051084 1.260069 -142.393726 145.120354 0.309716 179.226503 -12.062145 36.620186 4.846749 -19.286277 66.825263 -13.086387 11.234121 -25.621804 11.941145 -179.980726 75.74939 -0.013187 161.760916 8.451304 -92.915925 -69.560581 0.341482 -170.286424 -152.116817 -0.287759 95.092317 179.992899 75.74939 0.007326 -147.72476 70.596754 -180.0 -36.741506 -49.01768 -75.568774 149.548889 68.705313 104.493651
-1.9031 60.3342 -0.3094 127.521056 -85.314813 -121.694617 -6.749302 8.201199 -98.678808 6.003152 3.787405 98.477071 -13.361426 31.791154 -108.014646 39.709619 24.359463 75.707524 0.002278 -0.0 -0.00066 0.002278 -0.0 -0.00066 -33.839306 -85.665533 -55.257152 145.125397 59.961722 -120.197927 -179.479113 29.380468 59.430308 172.327969 -17.081824 143.484331 -85.829638 38.631086 47.95525 -127.525337 -19.337315 78.609948 37.216872 -57.917461 -0.642407 -172.165278 -36.833795 109.878446 89.035354 -81.392948 59.759368 -163.200262 -3.917836 143.056989 -145.09848 -1.521867 -178.64952 10.34343 -0.136747 -9.013495 -124.852156 -29.037411 -122.619806 -126.027069 -29.803254 -124.455065 0.175275 -74.028121 19.156611 94.765982 -28.123391 116.561111 -44.715378 -6.17089 147.350346 149.281251 46.439229 -124.061468 67.034064 37.763109 -34.643936 -35.319603 -31.416048 -16.203804 -6.227082 -10.728576 3.101223 -3.439038 12.857628 -2.146293 161.519988 -9.304061 -143.625432 176.818888 -42.230229 -142.387899 77.743346 72.902933 -95.870135 159.835816 -0.391922 -176.431906 -12.985261 44.344889 -10.761287 153.157935 29.133262 146.831418 -8.3e-05 -0.000527 0.000106 -43.862672 -61.670192 -180.0 -67.719749 -41.274845 -144.769243 -2.968091 45.929488 -83.73757 0.0 -0.001622 4.1e-05 9.549769 -2.425988 -180.0 -1.979201 -51.311267 -106.786106 81.135546 -53.451814 -0.787908
-2.2485 59.8804 -0.45599999999999996 124.541268 -85.999963 -119.066011 -9.075214 10.812224 1.341901 5.093901 -9.152042 -1.042381 6.871279 24.522186 88.168471 -36.506341 6.078919 -112.527651 -0.000669 -0.0 0.000616 -0.000985 0.0 -0.001742 -149.905281 22.421998 154.975905 -164.168861 59.055673 132.831745 142.66468 -66.948632 19.463403 175.923045 -6.327154 144.221913 -89.135747 38.426801 50.299408 -28.74914 -6.359867 35.695435 -140.164482 2.327211 115.87945 143.254339 -66.529897 86.956775 -10.97594 25.789811 7.640385 -171.992334 -31.360938 144.081192 -0.013319 -1.32312 -0.41612 -152.95449 22.489141 168.521972 -143.938207 8.265916 -140.718385 -155.381611 36.365936 -145.924823 159.222255 -48.380922 -170.491143 -145.914662 7.841862 144.001821 -0.390923 -11.371371 -104.429889 8.281606 -6.890266 3.490407 -93.028593 -51.083921 -40.500696 87.307514 38.030718 -47.379696 151.352904 -17.158244 -121.13368 -175.519987 -51.446144 -110.977633 86.294399 60.960992 -77.857716 3.091937 17.372734 -3.501467 -0.004699 1.855467 -0.582377 154.173719 14.734101 -169.805874 146.228465 15.470094 142.747309 -22.701032 58.753188 -5.908045 0.0 0.001158 -0.00154 -45.890426 -61.269171 130.366114 42.73741 -69.888512 128.551393 126.723373 -49.919999 -129.97042 -0.000466 0.000109 0.000599 11.228434 -0.941182 -90.143791 -44.883157 -4.623933 92.360603 80.224991 16.570015 10.382661
-2.6003 59.34589999999999 -0.5804 122.822647 -85.955485 -117.971598 -9.577468 10.970082 0.0 5.281947 -8.881276 0.53641 -4.994389 16.467586 6.062017 1.939576 -28.03476 -31.036237 0.000256 0.0 0.002457 -0.00032 0.0 -0.005264 0.022993 -0.138674 -0.030664 48.491697 5.384467 11.948472 173.34467 10.272649 59.87231 174.787755 -9.969534 144.040423 -6.581716 6.344719 1.364818 -137.602436 -40.98921 115.144723 -46.208031 39.653018 36.318424 178.20844 -35.124789 108.57553 0.541307 -1.589953 -0.294465 -172.077137 -31.343837 144.107126 -145.11892 0.226112 -179.200514 12.071966 36.619732 -4.848261 39.992814 85.641143 -0.904737 -160.860161 52.421413 -148.283755 85.53751 68.182586 -88.688908 -0.764638 -5.939386 -69.701319 81.470863 -76.795113 -19.585042 4.684237 -19.21307 4.501082 19.687373 17.543878 -5.97661 135.6404 -37.143316 -107.09052 14.227616 19.203598 -9.560108 -16.416758 -10.411911 1.61727 -1.280234 -3.803303 0.679624 -86.235791 -78.350903 -57.5111 73.162649 -72.142616 90.198076 150.975021 -0.358723 -176.410526 -39.969009 85.642177 0.880642 127.816553 -30.457702 124.750062 179.992868 75.75047 0.00488 160.942964 7.223255 -89.094047 -67.713806 -2.735631 90.463422 -147.936515 -32.418331 7.686121 179.999341 75.748744 0.0 -146.375906 71.519514 144.963301 3.316304 -56.779156 -54.688271 -133.024659 -82.219495 146.960047
-2.8197 58.837799999999994 -0.7202 118.70686 -85.715592 -114.543515 -12.387294 10.127911 51.317791 -1.593582 -10.60414 -50.877215 -13.268468 32.354457 -112.996907 36.801111 27.909001 80.392151 -0.001671 0.0 -0.001119 0.00404 -0.0 -0.001575 -82.106566 68.325811 85.221322 56.701026 -38.034219 65.051724 6.492904 -37.875667 87.695541 -9.292938 22.858809 0.57499 179.14231 -18.272265 89.129167 171.341884 -26.286767 103.048081 -83.732229 42.33043 69.990204 -179.786699 -34.009719 111.748248 -160.825109 -7.142047 143.316143 7.564361 -13.030983 -0.871267 -0.01454 -1.323002 -0.416857 -155.305197 -1.114026 171.983848 -132.779139 -17.594589 -130.284436 -10.38108 -25.469511 -13.212515 -3.446816 -62.740792 13.274755 66.738523 -40.463252 111.331493 -5.620442 -6.514076 137.234144 172.640598 2.808017 -141.861595 -88.928299 -50.830918 -37.599887 13.204555 -65.021238 39.689075 4.70697 7.223763 -2.855613 66.201083 48.365663 -50.342991 8.305667 20.652787 -5.559761 163.135647 -4.585476 -143.31796 31.707132 -66.109787 46.280954 144.002036 -62.882503 171.68344 6.120708 -13.785851 5.752295 -45.086805 83.466103 7.43083 -179.999172 75.749408 -0.000566 159.531863 8.064496 2.577307 -25.659244 73.516715 -63.722741 15.013253 -19.450371 108.113324 3.8e-05 0.000234 -4.8e-05 10.10135 1.638148 -0.089087 -12.915725 44.906595 -37.828963 178.251113 2.803094 -90.856238
-3.015 58.446 -0.8696 115.332015 -85.870725 -111.349666 -10.987174 10.911267 -0.0 5.597731 -8.562921 0.859777 -6.870275 35.893436 -153.025585 18.236347 43.985502 121.205221 -0.001571 -0.0 0.001405 -0.001774 0.0 -0.001232 -155.417444 -2.951366 161.718701 -31.690691 6.646374 2.428896 11.722624 -20.457232 -115.973148 173.328351 -13.48563 143.859327 -0.491216 0.484832 0.077466 19.82217 -31.087384 -13.726753 -148.886809 -12.609917 120.244048 0.333534 19.463369 -5.390668 -160.0973 -4.901342 142.96878 -18.280055 42.13725 14.88735 -145.098993 -1.603988 -178.623873 11.749989 58.586589 -1.70639 -25.537455 -38.087601 -24.598367 -22.345815 -40.110983 -23.923865 -0.060687 -0.367608 0.080478 102.433731 -14.263011 -170.723235 170.344157 -10.060197 76.358744 7.283386 -10.284693 3.842755 169.57203 -7.253996 -89.929063 -171.699583 -23.721389 -95.715611 19.170485 24.114727 -13.380455 -15.316457 -9.779583 1.828938 175.931837 -50.680359 -144.036756 -80.87956 -77.69454 -52.570018 0.000153 -0.061081 0.017583 -9.76128 7.249127 -0.879859 135.068924 -13.383591 132.469065 9.083674 -23.441096 11.997353 -0.001562 0.001171 -0.001171 -48.057086 -61.238166 128.228875 40.77224 -81.558577 24.497544 -89.308547 -6.916259 -175.195691 0.000195 0.001171 0.000195 9.223154 0.783491 89.239965 45.717577 4.363002 -96.056514 -88.821947 -64.691973 -16.922428
